<svg xmlns="http://www.w3.org/2000/svg" width="800" height="450" viewBox="0 0 800 450">
  <defs>
    <linearGradient id="bg" x1="0" y1="0" x2="1" y2="1">
      <stop offset="0" stop-color="#f8fafc"/>
      <stop offset="1" stop-color="#eef2f7"/>
    </linearGradient>
  </defs>
  <rect width="800" height="450" fill="url(#bg)"/>

  <rect x="24" y="24" width="752" height="402" rx="14" fill="#ffffff" stroke="#e5e7eb"/>
  <rect x="24" y="24" width="752" height="56" rx="14" fill="#111827"/>
  <circle cx="52" cy="52" r="6" fill="#ef4444"/>
  <circle cx="72" cy="52" r="6" fill="#f59e0b"/>
  <circle cx="92" cy="52" r="6" fill="#10b981"/>
  <text x="120" y="60" fill="#ffffff" font-family="Inter, Arial, sans-serif" font-size="16" font-weight="600">AI Plant Care</text>

  <g transform="translate(48,96)">
    <rect width="220" height="120" rx="12" fill="#ffffff" stroke="#e5e7eb"/>
    <rect x="14" y="16" width="80" height="10" rx="5" fill="#9ca3af"/>
    <rect x="14" y="36" width="160" height="10" rx="5" fill="#d1d5db"/>
    <rect x="14" y="56" width="140" height="10" rx="5" fill="#d1d5db"/>
    <rect x="14" y="76" width="100" height="10" rx="5" fill="#d1d5db"/>
  </g>
  <g transform="translate(290,96)">
    <rect width="220" height="120" rx="12" fill="#ffffff" stroke="#e5e7eb"/>
    <rect x="14" y="16" width="80" height="10" rx="5" fill="#9ca3af"/>
    <rect x="14" y="36" width="160" height="10" rx="5" fill="#d1d5db"/>
    <rect x="14" y="56" width="140" height="10" rx="5" fill="#d1d5db"/>
    <rect x="14" y="76" width="100" height="10" rx="5" fill="#d1d5db"/>
  </g>
  <g transform="translate(532,96)">
    <rect width="220" height="120" rx="12" fill="#ffffff" stroke="#e5e7eb"/>
    <rect x="14" y="16" width="80" height="10" rx="5" fill="#9ca3af"/>
    <rect x="14" y="36" width="160" height="10" rx="5" fill="#d1d5db"/>
    <rect x="14" y="56" width="140" height="10" rx="5" fill="#d1d5db"/>
    <rect x="14" y="76" width="100" height="10" rx="5" fill="#d1d5db"/>
  </g>

  <rect x="48" y="234" width="704" height="160" rx="12" fill="#ffffff" stroke="#e5e7eb"/>
  <polyline fill="none" stroke="#10b981" stroke-width="3" points="60,360 120,340 180,320 240,335 300,310 360,300 420,315 480,290 540,295 600,280 660,285 730,270"/>
  <polyline fill="none" stroke="#3b82f6" stroke-width="3" points="60,380 120,370 180,345 240,355 300,340 360,330 420,335 480,320 540,310 600,300 660,305 730,295"/>

  <text x="400" y="430" text-anchor="middle" fill="#6b7280" font-family="Inter, Arial, sans-serif" font-size="14">Generated mock screenshot • IoT sensors and deep learning insights</text>
</svg>

