<svg xmlns="http://www.w3.org/2000/svg" width="800" height="450" viewBox="0 0 800 450">
  <defs>
    <linearGradient id="bg" x1="0" y1="0" x2="1" y2="1">
      <stop offset="0" stop-color="#f8fafc"/>
      <stop offset="1" stop-color="#eef2f7"/>
    </linearGradient>
  </defs>
  <rect width="800" height="450" fill="url(#bg)"/>

  <rect x="24" y="24" width="752" height="402" rx="14" fill="#ffffff" stroke="#e5e7eb"/>
  <rect x="24" y="24" width="752" height="56" rx="14" fill="#111827"/>
  <circle cx="52" cy="52" r="6" fill="#ef4444"/>
  <circle cx="72" cy="52" r="6" fill="#f59e0b"/>
  <circle cx="92" cy="52" r="6" fill="#10b981"/>
  <text x="120" y="60" fill="#ffffff" font-family="Inter, Arial, sans-serif" font-size="16" font-weight="600">QuickShop</text>

  <rect x="48" y="96" width="200" height="18" rx="6" fill="#f3f4f6"/>
  <rect x="256" y="96" width="120" height="18" rx="6" fill="#f3f4f6"/>
  <rect x="380" y="96" width="120" height="18" rx="6" fill="#f3f4f6"/>

  <g transform="translate(48,128)">
    <rect width="210" height="150" rx="12" fill="#ffffff" stroke="#e5e7eb"/>
    <rect x="10" y="10" width="190" height="90" rx="8" fill="#e5e7eb"/>
    <rect x="10" y="108" width="120" height="10" rx="5" fill="#d1d5db"/>
    <rect x="10" y="124" width="60" height="10" rx="5" fill="#9ca3af"/>
    <rect x="150" y="118" width="50" height="18" rx="9" fill="#111827"/>
  </g>
  <g transform="translate(282,128)">
    <rect width="210" height="150" rx="12" fill="#ffffff" stroke="#e5e7eb"/>
    <rect x="10" y="10" width="190" height="90" rx="8" fill="#e5e7eb"/>
    <rect x="10" y="108" width="120" height="10" rx="5" fill="#d1d5db"/>
    <rect x="10" y="124" width="60" height="10" rx="5" fill="#9ca3af"/>
    <rect x="150" y="118" width="50" height="18" rx="9" fill="#111827"/>
  </g>
  <g transform="translate(516,128)">
    <rect width="210" height="150" rx="12" fill="#ffffff" stroke="#e5e7eb"/>
    <rect x="10" y="10" width="190" height="90" rx="8" fill="#e5e7eb"/>
    <rect x="10" y="108" width="120" height="10" rx="5" fill="#d1d5db"/>
    <rect x="10" y="124" width="60" height="10" rx="5" fill="#9ca3af"/>
    <rect x="150" y="118" width="50" height="18" rx="9" fill="#111827"/>
  </g>

  <g transform="translate(48,292)">
    <rect width="210" height="150" rx="12" fill="#ffffff" stroke="#e5e7eb"/>
    <rect x="10" y="10" width="190" height="90" rx="8" fill="#e5e7eb"/>
    <rect x="10" y="108" width="120" height="10" rx="5" fill="#d1d5db"/>
    <rect x="10" y="124" width="60" height="10" rx="5" fill="#9ca3af"/>
    <rect x="150" y="118" width="50" height="18" rx="9" fill="#111827"/>
  </g>
  <g transform="translate(282,292)">
    <rect width="210" height="150" rx="12" fill="#ffffff" stroke="#e5e7eb"/>
    <rect x="10" y="10" width="190" height="90" rx="8" fill="#e5e7eb"/>
    <rect x="10" y="108" width="120" height="10" rx="5" fill="#d1d5db"/>
    <rect x="10" y="124" width="60" height="10" rx="5" fill="#9ca3af"/>
    <rect x="150" y="118" width="50" height="18" rx="9" fill="#111827"/>
  </g>
  <g transform="translate(516,292)">
    <rect width="210" height="150" rx="12" fill="#ffffff" stroke="#e5e7eb"/>
    <rect x="10" y="10" width="190" height="90" rx="8" fill="#e5e7eb"/>
    <rect x="10" y="108" width="120" height="10" rx="5" fill="#d1d5db"/>
    <rect x="10" y="124" width="60" height="10" rx="5" fill="#9ca3af"/>
    <rect x="150" y="118" width="50" height="18" rx="9" fill="#111827"/>
  </g>

  <text x="400" y="430" text-anchor="middle" fill="#6b7280" font-family="Inter, Arial, sans-serif" font-size="14">Generated mock screenshot • Products grid with add-to-cart</text>
</svg>

